<svg width="394" height="186" viewBox="0 0 394 186" fill="none" xmlns="http://www.w3.org/2000/svg">
<path d="M11.6899 84.055C8.13552 70.9648 5.56849 60.1885 3.98877 51.7262C2.40906 43.2638 1.2901 36.5865 0.631885 31.6942C0.105314 26.6697 -0.0921499 23.0996 0.0394928 20.984C0.171136 18.7362 0.236957 17.3478 0.236957 16.8189C0.105314 14.7033 0.3686 12.4555 1.02681 10.0755C1.81667 7.69546 3.65967 5.71209 6.55581 4.1254C9.97852 1.87759 13.1379 0.621454 16.0341 0.357006C19.0619 -0.0396673 20.7074 -0.105779 20.9707 0.158669C20.3125 1.61314 19.9175 3.26594 19.7859 5.11708C19.6543 6.96822 19.7859 9.67882 20.1808 13.2489C20.5758 16.6867 21.1681 21.3807 21.958 27.3308C22.8795 33.1486 24.0643 40.8838 25.5124 50.5361C26.5655 57.6763 27.6845 64.618 28.8692 71.3615C30.1857 78.1049 31.4363 84.5178 32.6211 90.6001C33.9375 96.5502 35.1881 102.104 36.3729 107.26C37.5577 112.417 38.6766 116.979 39.7298 120.946C40.5196 117.508 41.3095 113.541 42.0993 109.045C43.0208 104.418 43.9423 99.5253 44.8638 94.3685C45.917 89.2118 47.0359 83.9228 48.2207 78.5016C49.5372 73.0804 50.9194 67.7253 52.3675 62.4363C53.8155 55.9573 55.3952 49.4122 57.1066 42.801C58.5547 37.1154 60.2002 31.0331 62.0432 24.5541C64.0178 17.9428 66.1241 11.8605 68.3621 6.3071C71.5215 4.45596 74.4834 3.26594 77.2479 2.73704C80.1441 2.20815 82.6453 2.07592 84.7516 2.34037C87.1211 2.60482 89.3591 3.13372 91.4653 3.92706C90.1489 6.70377 88.7667 9.94327 87.3186 13.6456C85.8705 17.2156 84.4225 20.984 82.9744 24.9507C81.658 28.7852 80.3415 32.752 79.0251 36.8509C77.7087 40.9499 76.4581 44.9166 75.2733 48.7511C72.5088 57.8746 69.7443 67.1964 66.9798 76.7166C64.7419 84.65 62.5698 92.7157 60.4635 100.914C58.6205 107.922 56.7117 115.458 54.737 123.524C52.894 131.59 51.2485 139.193 49.8004 146.333C49.8004 146.994 49.0106 147.721 47.4309 148.514C45.9828 149.308 44.2056 149.969 42.0993 150.498C40.1247 151.159 37.9526 151.556 35.583 151.688C33.3451 151.952 31.3705 151.754 29.6591 151.093C27.2895 145.01 25.0516 138.135 22.9453 130.466C20.839 122.665 18.9302 115.326 17.2189 108.45C15.2442 100.385 13.4012 92.2529 11.6899 84.055Z" fill="white"/>
<path d="M139.252 100.715C138.988 105.872 138.067 110.632 136.487 114.996C135.039 119.359 132.999 123.193 130.366 126.499C127.733 129.672 124.573 132.185 120.887 134.036C117.333 135.887 113.384 136.879 109.04 137.011C105.222 137.143 101.602 136.218 98.1791 134.234C94.8881 132.251 91.9919 129.474 89.4907 125.904C86.9895 122.334 85.0807 118.103 83.7642 113.21C82.5795 108.186 82.2504 102.765 82.7769 96.9469C83.1719 90.2035 84.4225 84.4517 86.5288 79.6916C88.635 74.7993 90.873 70.7665 93.2425 67.5931C95.6121 64.4197 97.7842 62.1058 99.7588 60.6513C101.865 59.0646 103.182 58.139 103.708 57.8746C104.63 57.4779 105.485 57.4118 106.275 57.6763C107.065 57.8085 107.921 58.0068 108.842 58.2713C109.105 58.4035 109.369 58.7341 109.632 59.263C110.159 60.1885 110.488 61.9074 110.619 64.4197C111.278 62.9652 112.133 61.7752 113.186 60.8496C114.24 59.9241 115.293 59.263 116.346 58.8663C117.662 58.3374 118.979 58.0068 120.295 57.8746C121.217 57.7424 122.796 58.4696 125.034 60.0563C127.404 61.643 129.642 64.1553 131.748 67.5931C133.986 71.0309 135.895 75.5266 137.474 81.08C139.054 86.5012 139.647 93.0463 139.252 100.715ZM125.824 98.3353C125.956 95.1619 125.824 91.9885 125.429 88.8151C125.166 85.5095 124.639 82.5344 123.849 79.89C123.191 77.1132 122.336 74.9315 121.282 73.3448C120.229 71.6259 119.176 70.7665 118.123 70.7665C116.938 71.0309 115.622 71.6259 114.174 72.5515C112.989 73.3448 111.673 74.601 110.224 76.3199C108.776 78.0388 107.394 80.485 106.078 83.6583C105.946 83.2617 105.814 82.5344 105.683 81.4766C105.551 80.5511 105.419 79.3611 105.288 77.9066C105.288 76.3199 105.419 74.2043 105.683 71.5598C103.84 73.8076 102.392 76.4521 101.339 79.4933C100.417 82.5344 99.693 85.4434 99.1665 88.2201C98.6399 91.5257 98.2449 94.8313 97.9817 98.1369C97.85 101.707 97.9817 105.211 98.3766 108.649C98.9032 112.087 99.693 115.128 100.746 117.772C101.931 120.417 103.313 122.532 104.893 124.119C106.473 125.706 108.381 126.433 110.619 126.301C112.857 126.168 114.832 125.243 116.543 123.524C118.255 121.805 119.769 119.623 121.085 116.979C122.401 114.334 123.455 111.359 124.244 108.054C125.034 104.748 125.561 101.509 125.824 98.3353Z" fill="white"/>
<path d="M149.125 64.618C149.125 63.8247 150.178 62.9652 152.284 62.0397C154.391 61.1141 156.694 60.3869 159.196 59.858C161.828 59.1968 164.198 58.8663 166.304 58.8663C168.542 58.7341 169.661 59.1968 169.661 60.2546C169.661 62.238 169.529 65.0808 169.266 68.7831C169.003 72.3532 168.674 76.1877 168.279 80.2866C167.884 84.2534 167.489 88.2862 167.094 92.3852C166.699 96.3519 166.436 99.7236 166.304 102.5C166.041 105.409 165.778 108.583 165.514 112.02C165.251 114.929 165.054 118.169 164.922 121.739C164.79 125.309 164.79 128.945 164.922 132.647C164.922 133.309 164.264 133.97 162.947 134.631C161.631 135.292 160.183 135.755 158.603 136.019C157.023 136.416 155.51 136.614 154.061 136.614C152.613 136.614 151.824 136.35 151.692 135.821C151.429 135.292 151.165 134.366 150.902 133.044C150.639 131.722 150.375 129.871 150.112 127.491C149.849 124.978 149.651 121.805 149.52 117.971C149.388 114.004 149.454 109.244 149.717 103.69C150.244 92.7157 150.31 84.2534 149.915 78.3033C149.52 72.2209 149.257 67.6592 149.125 64.618ZM162.947 25.1491C165.58 25.1491 168.081 25.9424 170.451 27.5291C172.821 29.1158 174.005 31.2314 174.005 33.8759C174.005 35.8592 173.479 37.7765 172.426 39.6276C171.504 41.4788 170.319 43.1316 168.871 44.5861C167.423 46.0405 165.778 47.2305 163.935 48.1561C162.092 48.9495 160.38 49.3461 158.801 49.3461C156.694 49.3461 154.983 49.0156 153.667 48.3545C152.35 47.5611 151.297 46.7016 150.507 45.7761C149.849 44.7183 149.388 43.5944 149.125 42.4044C148.862 41.2143 148.73 40.0904 148.73 39.0326C148.73 37.7104 148.927 36.2559 149.322 34.6692C149.717 32.9503 150.441 31.4297 151.494 30.1075C152.548 28.653 153.996 27.463 155.839 26.5374C157.682 25.6119 160.051 25.1491 162.947 25.1491Z" fill="white"/>
<path d="M237.391 109.839C237.391 111.293 236.865 113.541 235.812 116.582C234.89 119.491 233.31 122.466 231.072 125.507C228.835 128.416 225.938 130.995 222.384 133.242C218.961 135.49 214.749 136.614 209.746 136.614C202.638 136.614 196.648 134.697 191.777 130.862C187.038 126.896 183.681 121.276 181.706 114.004C180.127 107.922 179.666 101.443 180.324 94.5669C181.114 87.559 183.023 81.08 186.051 75.1299C189.078 69.1798 193.291 64.1553 198.688 60.0563C204.086 55.8251 210.668 53.5112 218.435 53.1145C222.384 52.9823 225.675 53.7095 228.308 55.2962C230.941 56.8829 232.981 58.9324 234.429 61.4447C235.877 63.9569 236.733 66.7336 236.996 69.7748C237.26 72.6837 236.931 75.4604 236.009 78.1049C235.219 80.7494 233.903 82.9972 232.06 84.8484C230.348 86.5673 228.11 87.4929 225.346 87.6251C222.581 87.8895 220.278 87.559 218.435 86.6334C216.723 85.5756 215.341 84.3195 214.288 82.865C213.366 81.4105 212.708 79.89 212.313 78.3033C212.05 76.7166 212.05 75.3282 212.313 74.1382C212.708 72.4193 213.366 70.8326 214.288 69.3781C215.078 68.0559 216.197 66.7336 217.645 65.4114C219.225 64.0891 221.265 63.0313 223.766 62.238C223.371 61.9736 222.976 61.8413 222.581 61.8413C222.187 61.8413 221.792 61.7752 221.397 61.643C220.87 61.643 220.475 61.5769 220.212 61.4447C218.106 61.4447 215.67 62.1719 212.906 63.6264C210.273 65.0808 207.706 67.3948 205.205 70.5681C202.835 73.7415 200.795 77.8405 199.083 82.865C197.504 87.7573 196.714 93.7074 196.714 100.715C196.714 103.756 197.043 106.798 197.701 109.839C198.359 112.748 199.347 115.392 200.663 117.772C202.111 120.02 203.822 121.871 205.797 123.326C207.903 124.648 210.339 125.309 213.103 125.309C216.263 125.309 219.027 124.648 221.397 123.326C223.898 121.871 226.004 120.218 227.716 118.367C229.427 116.516 230.743 114.665 231.665 112.814C232.718 110.963 233.442 109.574 233.837 108.649C234.232 107.855 234.89 107.459 235.812 107.459C236.865 107.459 237.391 108.252 237.391 109.839Z" fill="white"/>
<path d="M250.029 64.618C250.029 63.8247 251.082 62.9652 253.188 62.0397C255.295 61.1141 257.598 60.3869 260.1 59.858C262.732 59.1968 265.102 58.8663 267.208 58.8663C269.446 58.7341 270.565 59.1968 270.565 60.2546C270.565 62.238 270.434 65.0808 270.17 68.7831C269.907 72.3532 269.578 76.1877 269.183 80.2866C268.788 84.2534 268.393 88.2862 267.998 92.3852C267.603 96.3519 267.34 99.7236 267.208 102.5C266.945 105.409 266.682 108.583 266.418 112.02C266.155 114.929 265.958 118.169 265.826 121.739C265.694 125.309 265.694 128.945 265.826 132.647C265.826 133.309 265.168 133.97 263.851 134.631C262.535 135.292 261.087 135.755 259.507 136.019C257.928 136.416 256.414 136.614 254.966 136.614C253.518 136.614 252.728 136.35 252.596 135.821C252.333 135.292 252.069 134.366 251.806 133.044C251.543 131.722 251.28 129.871 251.016 127.491C250.753 124.978 250.556 121.805 250.424 117.971C250.292 114.004 250.358 109.244 250.621 103.69C251.148 92.7157 251.214 84.2534 250.819 78.3033C250.424 72.2209 250.161 67.6592 250.029 64.618ZM263.851 25.1491C266.484 25.1491 268.986 25.9424 271.355 27.5291C273.725 29.1158 274.909 31.2314 274.909 33.8759C274.909 35.8592 274.383 37.7765 273.33 39.6276C272.408 41.4788 271.223 43.1316 269.775 44.5861C268.327 46.0405 266.682 47.2305 264.839 48.1561C262.996 48.9495 261.284 49.3461 259.705 49.3461C257.598 49.3461 255.887 49.0156 254.571 48.3545C253.254 47.5611 252.201 46.7016 251.411 45.7761C250.753 44.7183 250.292 43.5944 250.029 42.4044C249.766 41.2143 249.634 40.0904 249.634 39.0326C249.634 37.7104 249.832 36.2559 250.226 34.6692C250.621 32.9503 251.345 31.4297 252.399 30.1075C253.452 28.653 254.9 27.463 256.743 26.5374C258.586 25.6119 260.955 25.1491 263.851 25.1491Z" fill="white"/>
<path d="M321.511 5.91043C325.329 6.17488 328.751 7.10045 331.779 8.68714C334.412 10.1416 336.782 12.4555 338.888 15.6289C340.994 18.6701 342.113 23.0335 342.245 28.7191C340.27 30.1736 338.295 31.2314 336.321 31.8925C334.346 32.5536 332.569 33.0164 330.989 33.2809C329.146 33.5453 327.369 33.5453 325.658 33.2809C326.184 29.5786 326.184 26.7358 325.658 24.7524C325.263 22.769 324.67 21.3146 323.881 20.389C322.959 19.3312 321.774 18.7362 320.326 18.604C315.982 18.604 312.757 21.9096 310.65 28.5208C308.676 34.9998 307.491 43.9249 307.096 55.2962C308.939 55.0318 310.585 54.7012 312.033 54.3045C313.481 53.9079 315.126 53.6434 316.969 53.5112C318.681 53.379 320.326 53.3129 321.906 53.3129C323.354 53.3129 324.802 53.4451 326.25 53.7095C327.83 53.974 329.278 54.4368 330.594 55.0979C330.858 57.3457 330.858 59.3952 330.594 61.2463C330.331 63.0975 329.936 64.7503 329.41 66.2047C328.883 67.7914 328.159 69.312 327.237 70.7665C325.658 69.9731 323.683 69.4442 321.314 69.1798C319.076 68.9153 316.903 68.7831 314.797 68.7831C312.296 68.7831 309.729 68.9153 307.096 69.1798C307.228 75.2621 307.359 81.0139 307.491 86.4351C307.623 91.724 307.754 96.9469 307.886 102.104C308.149 107.128 308.413 112.219 308.676 117.376C308.939 122.4 309.202 127.557 309.466 132.846C308.018 134.697 306.438 135.821 304.727 136.218C303.147 136.746 301.633 136.945 300.185 136.813C298.474 136.68 296.762 136.218 295.051 135.424C293.998 126.697 293.142 118.499 292.484 110.83C291.957 103.029 291.496 96.2197 291.102 90.4018C290.575 83.6583 290.18 77.4438 289.917 71.7582C287.679 72.0226 285.77 72.2209 284.19 72.3532C282.742 72.3532 281.623 72.2871 280.833 72.1548C280.307 72.1548 280.044 71.7582 280.044 70.9648L279.846 61.643C279.846 61.1141 280.109 60.8496 280.636 60.8496C281.557 60.5852 282.742 60.3208 284.19 60.0563C285.77 59.6596 287.613 59.1968 289.719 58.6679C290.246 41.8755 293.076 28.9175 298.21 19.794C303.344 10.5383 311.111 5.91043 321.511 5.91043Z" fill="white"/>
<path d="M392.796 58.6679C393.059 70.3037 393.256 80.485 393.388 89.2118C393.52 97.9386 393.651 105.277 393.783 111.227C393.914 118.235 393.98 124.251 393.98 129.276C394.112 135.49 393.585 141.903 392.401 148.514C391.347 155.258 389.57 161.406 387.069 166.96C384.568 172.513 381.277 177.075 377.196 180.645C373.115 184.215 368.178 186 362.386 186C355.409 186 350.077 184.546 346.391 181.637C342.705 178.86 340.007 175.687 338.295 172.116C336.584 168.546 335.597 165.175 335.333 162.001C335.07 158.96 334.939 157.175 334.939 156.646C334.939 155.588 335.597 154.398 336.913 153.076C338.23 151.754 340.204 150.564 342.837 149.506C343.89 149.109 344.943 148.779 345.996 148.514C346.918 148.25 347.84 148.052 348.761 147.919C349.682 147.787 350.538 147.853 351.328 148.118C350.012 150.498 349.222 153.208 348.958 156.25C348.827 159.291 349.222 162.133 350.143 164.778C351.196 167.555 352.71 169.869 354.685 171.72C356.66 173.571 359.161 174.496 362.189 174.496C366.401 174.496 369.692 173.24 372.062 170.728C374.563 168.348 376.406 165.373 377.591 161.803C378.907 158.233 379.697 154.464 379.96 150.498C380.355 146.531 380.553 143.027 380.553 139.986C380.553 137.606 380.487 134.565 380.355 130.862C380.355 127.028 380.158 122.797 379.763 118.169C378.183 120.813 376.34 123.392 374.234 125.904C372.128 128.284 369.89 130.4 367.52 132.251C365.151 134.102 362.715 135.556 360.214 136.614C357.844 137.804 355.475 138.399 353.105 138.399C349.024 138.399 345.733 137.143 343.232 134.631C340.731 131.986 338.822 128.747 337.506 124.912C336.189 120.946 335.268 116.714 334.741 112.219C334.346 107.591 334.149 103.36 334.149 99.5253C334.149 96.6163 334.28 93.1124 334.544 89.0134C334.807 84.7823 335.136 80.7494 335.531 76.9149C335.926 73.0804 336.387 69.7748 336.913 66.9981C337.571 64.0891 338.23 62.4363 338.888 62.0397C342.705 59.7919 346.457 58.5357 350.143 58.2713C353.829 58.0068 356.594 58.4696 358.437 59.6596C356.857 60.8496 355.541 62.833 354.487 65.6097C353.434 68.3864 352.579 71.4937 351.92 74.9315C351.262 78.2372 350.801 81.7411 350.538 85.4434C350.275 89.0134 350.143 92.2529 350.143 95.1619C350.143 97.5419 350.209 100.385 350.341 103.69C350.472 106.996 350.736 110.169 351.131 113.21C351.657 116.252 352.381 118.83 353.303 120.946C354.224 123.061 355.409 124.119 356.857 124.119C359.753 124.119 362.452 123.061 364.953 120.946C367.454 118.83 369.626 116.186 371.469 113.012C373.444 109.839 374.958 106.467 376.011 102.897C377.064 99.1947 377.591 95.7569 377.591 92.5835V90.9968C377.328 87.559 377.064 84.3195 376.801 81.2783C376.538 78.1049 376.274 75.2621 376.011 72.7498C375.879 70.2376 375.748 68.1881 375.616 66.6014C375.616 64.8825 375.616 63.7586 375.616 63.2297C375.616 61.9074 376.472 60.7174 378.183 59.6596C380.026 58.6018 382.001 57.8746 384.107 57.4779C386.345 56.949 388.32 56.7507 390.031 56.8829C391.874 57.0151 392.796 57.6102 392.796 58.6679Z" fill="white"/>
</svg>
