<?xml version="1.0" encoding="utf-8"?>
<!-- Generator: Adobe Illustrator 22.0.1, SVG Export Plug-In . SVG Version: 6.00 Build 0)  -->
<svg version="1.1" id="Camada_1" xmlns="http://www.w3.org/2000/svg" xmlns:xlink="http://www.w3.org/1999/xlink" x="0px" y="0px"
	 viewBox="0 0 1458 297" style="enable-background:new 0 0 1458 297;" xml:space="preserve">
<style type="text/css">
	.st0{fill:#1CA74D;}
</style>
<path class="st0" d="M944.5,153.9c-8.5,0-15.4,6.9-15.4,15.4v61.5v7.5v61.5v6.2v61.5h30.8V306v-6.2h0v-61.5v-7.5v-61.5
	C959.9,160.8,953,153.9,944.5,153.9z"/>
<path class="st0" d="M1073.8,41c-8.5,0-15.4,6.9-15.4,15.4V118v7.5V187v119v61.5h30.8V306V187v-61.5V118V56.4
	C1089.2,47.9,1082.3,41,1073.8,41z"/>
<path class="st0" d="M987.6,133.4c-8.5,0-15.4,6.9-15.4,15.4v61.5v7.5v61.5V306v61.5h30.8V306v-26.7h0v-61.5v-7.5v-61.5
	C1003,140.3,996.1,133.4,987.6,133.4z"/>
<path class="st0" d="M1030.7,82.1c-8.5,0-15.4,6.9-15.4,15.4V159v7.5V228v78v61.5h30.8V306v-78v-61.5V159V97.5
	C1046.1,89,1039.2,82.1,1030.7,82.1z"/>
<path class="st0" d="M815.2,102.6c-8.5,0-15.4,6.9-15.4,15.4v61.5v7.5v61.5V306v61.5h30.8V306v-57.5h0V187v-7.5V118
	C830.6,109.5,823.7,102.6,815.2,102.6z"/>
<path class="st0" d="M772.1,164.2c-8.5,0-15.4,6.9-15.4,15.4v61.6v7.4V306v4.1v57.4h30.8v-57.4h0v-61.5v-7.4v-61.6
	C787.5,171.1,780.6,164.2,772.1,164.2z"/>
<path class="st0" d="M858.3,61.6c-8.5,0-15.4,6.9-15.4,15.4v61.5v7.5v61.5V306v61.5h30.8V306v-98.5h0V146v-7.5V77
	C873.7,68.5,866.8,61.6,858.3,61.6z"/>
<path class="st0" d="M901.4,92.3c-8.5,0-15.4,6.9-15.4,15.5v61.5v7.5v61.5V306v61.5h30.8V306v-67.8v-61.5v-7.5v-61.5
	C916.8,99.2,909.9,92.3,901.4,92.3z"/>
<path class="st0" d="M1203.1,143.6c-8.5,0-15.4,6.9-15.4,15.4v61.5v7.5v61.5V306v61.5h30.8V306v-16.5V228v-7.5V159
	C1218.5,150.5,1211.6,143.6,1203.1,143.6z"/>
<path class="st0" d="M1375.5,143.6c-8.5,0-15.4,6.9-15.4,15.4v61.5v7.5v61.5V306v61.5h30.8V306v-16.5V228v-7.5V159
	C1390.9,150.5,1384,143.6,1375.5,143.6z"/>
<path class="st0" d="M1332.4,30.8c-8.5,0-15.4,6.9-15.4,15.4v61.5v7.5v61.5V306v61.5h30.8V306V176.8v-61.5v-7.5V46.2
	C1347.8,37.7,1340.9,30.8,1332.4,30.8z"/>
<path class="st0" d="M1418.6,112.9c-8.5,0-15.4,6.9-15.4,15.4v61.5v7.5v61.5V306v61.5h30.8V306v-47.2v-61.5v-7.5v-61.5
	C1434,119.8,1427.1,112.9,1418.6,112.9z"/>
<path class="st0" d="M729,133.4c-8.5,0-15.4,6.9-15.4,15.4v61.5v7.5v61.5V306v61.5h30.8V306v-26.7h0v-61.5v-7.5v-61.5
	C744.4,140.3,737.5,133.4,729,133.4z"/>
<path class="st0" d="M1289.3,102.6c-8.5,0-15.4,6.9-15.4,15.4v61.5v7.5v61.5V306v61.5h30.8V306v-57.5V187v-7.5V118
	C1304.7,109.5,1297.8,102.6,1289.3,102.6z"/>
<path class="st0" d="M1160,82.1c-8.5,0-15.4,6.9-15.4,15.4V159v7.5V228v78v61.5h30.8V306v-78v-61.5V159V97.5
	C1175.4,89,1168.5,82.1,1160,82.1z"/>
<path class="st0" d="M1116.9,112.9c-8.5,0-15.4,6.9-15.4,15.4v61.5v7.5v61.5V306v61.5h30.8V306v-47.2v-61.5v-7.5v-61.5
	C1132.3,119.8,1125.4,112.9,1116.9,112.9z"/>
<path class="st0" d="M1246.2,0c-8.5,0-15.4,6.9-15.4,15.4V77v7.5V146v160v61.5h30.8V306V146V84.4V77V15.4
	C1261.6,6.9,1254.7,0,1246.2,0z"/>
<path class="st0" d="M168.7,164.2c-8.5,0-15.4,6.9-15.4,15.4v61.6v7.4V306v4.1v57.4h30.8v-57.4V306v-57.4v-7.4v-61.6
	C184.1,171.1,177.2,164.2,168.7,164.2z"/>
<path class="st0" d="M254.9,143.6c-8.5,0-15.4,6.9-15.4,15.4v61.5v7.5v61.5V306v61.5h30.8V306v-16.5V228v-7.5V159
	C270.3,150.5,263.4,143.6,254.9,143.6z"/>
<path class="st0" d="M211.8,71.8c-8.5,0-15.4,6.9-15.4,15.4v61.5v7.5v61.5V306v61.5h30.8V306v-88.3v-61.5v-7.5V87.2
	C227.2,78.7,220.3,71.8,211.8,71.8z"/>
<path class="st0" d="M298,92.3c-8.5,0-15.4,6.9-15.4,15.4v61.5v7.5v61.5V306v61.5h30.8V306v-67.8v-61.5v-7.5v-61.5
	C313.4,99.2,306.5,92.3,298,92.3z"/>
<path class="st0" d="M125.6,123.1c-8.5,0-15.4,6.9-15.4,15.4V200v7.5V269v37v61.5H141V306v-37v-61.5V200v-61.5
	C141,130,134.1,123.1,125.6,123.1z"/>
<path class="st0" d="M39.4,195c-8.5,0-15.4,6.9-15.4,15.4V272v7.4V306v34.9v26.6h30.8v-26.6V306v-26.6V272v-61.6
	C54.8,201.9,47.9,195,39.4,195z"/>
<path class="st0" d="M341.1,51.3c-8.5,0-15.4,6.9-15.4,15.4v61.5v7.5v61.5V306v61.5h30.8V306V197.3v-61.5v-7.5V66.7
	C356.5,58.2,349.6,51.3,341.1,51.3z"/>
<path class="st0" d="M82.5,153.9c-8.5,0-15.4,6.9-15.4,15.4v61.5v7.5v61.5v6.2v61.5h30.8c0,0,0-51.4,0-61.5c0,0,0-5.1,0-6.2
	c0-10.2,0-61.5,0-61.5v-7.5v-61.5C97.9,160.8,91,153.9,82.5,153.9z"/>
<path class="st0" d="M599.7,195c-8.5,0-15.4,6.9-15.4,15.4V272v7.4V306v34.9v26.6h30.8v-26.6h0v-61.5V272v-61.6
	C615.1,201.9,608.2,195,599.7,195z"/>
<path class="st0" d="M685.9,71.8c-8.5,0-15.4,6.9-15.4,15.4v61.5v7.5v61.5V306v61.5h30.8V306v-88.3h0v-61.5v-7.5V87.2
	C701.3,78.7,694.4,71.8,685.9,71.8z"/>
<path class="st0" d="M556.6,82.1c-8.5,0-15.4,6.9-15.4,15.4V159v7.5V228v78v61.5H572V306v-78v-61.5V159V97.5
	C572,89,565.1,82.1,556.6,82.1z"/>
<path class="st0" d="M384.2,112.9c-8.5,0-15.4,6.9-15.4,15.4v61.5v7.5v61.5V306v61.5h30.8V306v-47.2v-61.5v-7.5v-61.5
	C399.6,119.8,392.7,112.9,384.2,112.9z"/>
<path class="st0" d="M642.8,153.9c-8.5,0-15.4,6.9-15.4,15.4v61.5v7.5v61.5v6.2v61.5h30.8V306v-6.2h0v-61.5v-7.5v-61.5
	C658.2,160.8,651.3,153.9,642.8,153.9z"/>
<path class="st0" d="M427.3,153.9c-8.5,0-15.4,6.9-15.4,15.4v61.5v7.5v61.5v6.2v61.5h30.8V306v-6.2v-61.5v-7.5v-61.5
	C442.7,160.8,435.8,153.9,427.3,153.9z"/>
<path class="st0" d="M470.4,112.9c-8.5,0-15.4,6.9-15.4,15.4v61.5v7.5v61.5V306v61.5h30.8V306v-47.2v-61.5v-7.5v-61.5
	C485.8,119.8,478.9,112.9,470.4,112.9z"/>
<path class="st0" d="M513.5,143.6c-8.5,0-15.4,6.9-15.4,15.4v61.5v7.5v61.5V306v61.5h30.8V306v-16.5V228v-7.5V159
	C528.9,150.5,522,143.6,513.5,143.6z"/>
</svg>
